<svg width="289" height="82" viewBox="0 0 289 82" fill="none" xmlns="http://www.w3.org/2000/svg">
<path d="M94.6781 23.332H94.582V23.3461C94.6102 23.3461 94.6359 23.3461 94.6781 23.332Z" fill="#168F8C"/>
<path d="M95.3156 22.4203V80.7234H109.022V37.0242C109.022 33.7617 107.28 23.9039 95.3156 22.4203Z" fill="#00A39D"/>
<path d="M22.4367 70.582C24.1781 70.582 25.6055 70.3641 26.707 69.9164C27.8086 69.4687 28.6781 68.8969 29.3039 68.2031C29.9297 67.4953 30.3516 66.7078 30.5953 65.8242C30.8273 64.9406 30.9492 64.043 30.9492 63.1312C30.9492 62.0836 30.8133 61.1601 30.5414 60.3164C30.2695 59.4867 29.7937 58.7789 29.1398 58.2094C28.4742 57.6375 27.6023 57.1898 26.5031 56.8758C25.4156 56.5641 24.0281 56.4141 22.3687 56.4141H13.1484V70.582H22.4367ZM13.1484 33.5437V47.5898H20.0156C21.4711 47.5898 22.7883 47.482 23.9578 47.2781C25.1273 47.0742 26.1188 46.7063 26.9484 46.1906C27.7641 45.675 28.3898 44.9531 28.8258 44.0414C29.2617 43.1297 29.4656 41.9883 29.4656 40.6008C29.4656 39.2414 29.3016 38.1258 28.9617 37.2281C28.6219 36.3305 28.1063 35.6109 27.3984 35.0672C26.6906 34.5234 25.807 34.1297 24.7195 33.8977C23.6461 33.6656 22.3547 33.5437 20.8711 33.5437H13.1367H13.1484ZM20.8852 23.6719C24.8156 23.6719 28.1602 24.0398 30.9187 24.7594C33.6797 25.493 35.9367 26.5125 37.6758 27.8461C39.4172 29.1797 40.6945 30.7828 41.482 32.6859C42.2695 34.5891 42.6797 36.7102 42.6797 39.0492C42.6797 40.3266 42.5039 41.55 42.1359 42.7336C41.768 43.9172 41.1984 45.0187 40.4227 46.0523C39.6469 47.0859 38.6414 48.0234 37.418 48.8812C36.1945 49.7367 34.725 50.4867 33.0117 51.1102C36.7641 52.0219 39.5391 53.4891 41.332 55.5164C43.125 57.5437 44.025 60.1805 44.025 63.4031C44.025 65.8242 43.5633 68.0812 42.6234 70.1601C41.6859 72.2414 40.3125 74.0625 38.5031 75.6C36.6937 77.1492 34.4648 78.3609 31.8141 79.2305C29.1633 80.1 26.1305 80.5359 22.718 80.5359H0V23.6719H20.925H20.8852Z" fill="#00A39D"/>
<path d="M83.6625 35.2172C83.2688 35.843 82.8609 36.3047 82.4391 36.6188C82.0031 36.9305 81.4594 37.0805 80.7797 37.0805C80.182 37.0805 79.5422 36.8906 78.8484 36.5086C78.1547 36.1289 77.3789 35.707 76.5094 35.243C75.6399 34.7813 74.6461 34.3453 73.5188 33.9774C72.4031 33.5977 71.1258 33.4055 69.6984 33.4055C67.2234 33.4055 65.3883 33.9352 64.1789 34.9828C62.9695 36.0305 62.3578 37.4578 62.3578 39.2531C62.3578 40.3945 62.7258 41.3461 63.4453 42.1078C64.1789 42.8695 65.1305 43.5094 66.3141 44.0649C67.4977 44.6086 68.857 45.1125 70.3805 45.5742C71.9039 46.036 73.4531 46.5399 75.0445 47.0977C76.6359 47.6555 78.1852 48.307 79.7086 49.0688C81.232 49.8305 82.5914 50.782 83.775 51.9516C84.9586 53.1211 85.9102 54.5485 86.6438 56.2219C87.3773 57.8953 87.7313 59.9203 87.7313 62.2852C87.7313 64.9102 87.2836 67.3711 86.3719 69.6539C85.4602 71.9391 84.143 73.9359 82.4016 75.6492C80.6742 77.3484 78.5391 78.6961 75.9984 79.6735C73.4578 80.6508 70.5727 81.143 67.35 81.143C65.5828 81.143 63.7734 80.9672 61.9383 80.5992C60.1031 80.2313 58.3219 79.7156 56.6086 79.0617C54.8953 78.3961 53.2781 77.6063 51.7688 76.6969C50.2594 75.7852 48.9398 74.7656 47.8266 73.65L51.7289 67.4906C52.0406 67.043 52.4484 66.675 52.9523 66.375C53.4563 66.075 54.0141 65.9274 54.6117 65.9274C55.3875 65.9274 56.175 66.1711 56.9766 66.675C57.7641 67.1649 58.6617 67.7227 59.6695 68.3203C60.675 68.918 61.8188 69.4617 63.1242 69.9656C64.4297 70.4555 65.9649 70.7133 67.7344 70.7133C70.1274 70.7133 71.9906 70.1836 73.3219 69.1359C74.6555 68.0742 75.307 66.4172 75.307 64.118C75.307 62.7844 74.9391 61.711 74.2195 60.8813C73.4859 60.0516 72.5344 59.3578 71.3508 58.8141C70.1672 58.2703 68.8219 57.7805 67.3125 57.3727C65.8031 56.9508 64.2539 56.4891 62.6625 55.9852C61.0711 55.4813 59.5219 54.8555 58.0125 54.1078C56.5031 53.3602 55.1578 52.3946 53.9742 51.1852C52.7906 49.9758 51.825 48.4664 51.1055 46.657C50.3719 44.8477 50.018 42.6188 50.018 39.968C50.018 37.8328 50.4539 35.7539 51.3094 33.7266C52.1648 31.7016 53.4305 29.8922 55.1039 28.3008C56.7773 26.7094 58.8164 25.4461 61.2352 24.4945C63.6563 23.543 66.4289 23.0672 69.5555 23.0672C71.2969 23.0672 72.9961 23.2031 74.6555 23.475C76.3149 23.7469 77.8781 24.1547 79.3594 24.6844C80.8406 25.2141 82.2281 25.8539 83.5195 26.6016C84.8109 27.3492 85.9523 28.1789 86.9742 29.1164L83.6977 35.2477L83.6625 35.2172Z" fill="#00A39D"/>
<path d="M110.531 1.41328C110.503 0.9375 110.449 0.461719 110.381 0C113.454 3.16875 117.832 5.01796 122.578 4.71796C124.849 4.56796 126.97 3.94219 128.859 2.95078C127.39 5.50781 126.63 8.5125 126.834 11.6812C127.078 15.5977 128.766 19.0781 131.32 21.6609C130.015 21.4031 128.641 21.293 127.242 21.3891C121.695 21.743 117.005 24.9516 114.53 29.4937C113.55 22.7766 108.342 17.5547 101.817 16.3992C107.325 13.7063 110.955 7.88671 110.545 1.40156L110.531 1.41328Z" fill="#F9AD3C"/>
<path d="M134.17 57.4617C134.808 57.4617 135.363 57.3937 135.823 57.2437C136.28 57.0937 136.669 56.9039 136.959 56.6461C137.264 56.3883 137.487 56.0742 137.625 55.7086C137.763 55.3406 137.834 54.9469 137.834 54.5109C137.834 53.6672 137.529 53.0015 136.917 52.5258C136.305 52.0359 135.391 51.7922 134.17 51.7922H130.577V57.4617H134.17ZM130.577 44.6672V50.2148H133.547C134.184 50.2148 134.726 50.1469 135.199 50.0109C135.67 49.875 136.059 49.6851 136.364 49.439C136.669 49.1953 136.905 48.9094 137.044 48.5695C137.196 48.2156 137.266 47.85 137.266 47.4281C137.266 46.4625 136.976 45.7687 136.378 45.3211C135.795 44.8734 134.88 44.6554 133.645 44.6554H130.58V44.6672H130.577ZM133.643 42.9258C134.67 42.9258 135.544 43.0219 136.28 43.2258C137.016 43.4156 137.625 43.7015 138.098 44.0695C138.584 44.4375 138.93 44.8851 139.153 45.4148C139.376 45.9304 139.486 46.5305 139.486 47.182C139.486 47.5898 139.416 47.9695 139.291 48.3375C139.167 48.7055 138.973 49.0453 138.722 49.357C138.471 49.6687 138.138 49.9687 137.752 50.2125C137.362 50.4562 136.905 50.6601 136.378 50.8242C137.599 51.0562 138.516 51.4758 139.125 52.1015C139.748 52.7273 140.055 53.543 140.055 54.5484C140.055 55.2422 139.931 55.8679 139.666 56.4375C139.416 57.0094 139.029 57.4969 138.53 57.907C138.03 58.3148 137.419 58.6265 136.697 58.8586C135.975 59.0765 135.143 59.1843 134.212 59.1843H128.344V42.9094H133.645V42.9258H133.643Z" fill="#00A39D"/>
<path d="M151.92 53.1633L149.311 46.5422C149.227 46.3523 149.159 46.1203 149.06 45.8625C148.976 45.6047 148.894 45.3187 148.809 45.0187C148.643 45.6305 148.477 46.1484 148.31 46.5562L145.702 53.1633H151.905H151.92ZM156.595 59.2008H154.861C154.652 59.2008 154.5 59.1469 154.376 59.0508C154.252 58.9547 154.153 58.8328 154.099 58.6711L152.545 54.7406H145.095L143.541 58.6711C143.498 58.807 143.402 58.9289 143.278 59.039C143.154 59.1468 142.987 59.2031 142.793 59.2031H141.059L147.705 42.9281H149.981L156.628 59.2031H156.595V59.2008Z" fill="#00A39D"/>
<path d="M172.235 42.9399V59.2149H171.11C170.93 59.2149 170.777 59.1867 170.653 59.1188C170.543 59.0649 170.416 58.9547 170.306 58.807L160.704 46.5422C160.718 46.7321 160.732 46.9219 160.746 47.1C160.76 47.2758 160.76 47.4539 160.76 47.6156V59.2149H158.789V42.9399H159.954C160.05 42.9399 160.134 42.9539 160.205 42.968C160.275 42.9821 160.329 42.9961 160.385 43.0219C160.441 43.05 160.495 43.0758 160.552 43.1297C160.608 43.1695 160.662 43.2375 160.732 43.3055L170.334 55.5563C170.32 55.3524 170.306 55.1766 170.292 54.9844C170.278 54.7945 170.278 54.6164 170.278 54.4547V42.9235H172.249L172.235 42.9399Z" fill="#00A39D"/>
<path d="M178.73 50.0648H179.576C179.866 50.0648 180.103 50.025 180.284 49.957C180.464 49.875 180.63 49.7531 180.769 49.5773L186.291 43.4461C186.443 43.2422 186.609 43.1063 186.776 43.0383C186.942 42.9563 187.151 42.9305 187.399 42.9305H189.3L182.972 49.9336C182.82 50.1094 182.667 50.2734 182.515 50.3812C182.377 50.4891 182.224 50.5852 182.058 50.6672C182.266 50.7352 182.461 50.8313 182.627 50.9789C182.794 51.1008 182.96 51.2789 183.127 51.4945L189.731 59.2031H187.788C187.636 59.2031 187.512 59.1891 187.399 59.175C187.303 59.1469 187.205 59.1211 187.137 59.0789C187.052 59.0391 186.984 58.9828 186.928 58.9289C186.872 58.875 186.818 58.807 186.762 58.725L181.031 52.2656C180.879 52.0758 180.713 51.9399 180.532 51.8719C180.352 51.7899 180.089 51.75 179.728 51.75H178.716V59.2008H176.482V42.9258H178.716V50.0648H178.73Z" fill="#00A39D"/>
<path d="M206.259 45.4828C206.189 45.5906 206.107 45.6867 206.023 45.7406C205.938 45.7945 205.842 45.8227 205.732 45.8227C205.608 45.8227 205.441 45.7547 205.275 45.6328C205.095 45.511 204.872 45.3609 204.609 45.2109C204.347 45.0469 204.026 44.911 203.651 44.775C203.276 44.6391 202.833 44.5852 202.291 44.5852C201.792 44.5852 201.347 44.6531 200.96 44.7891C200.585 44.911 200.266 45.1008 200.002 45.3188C199.751 45.5508 199.559 45.8086 199.418 46.1203C199.294 46.4203 199.223 46.7461 199.223 47.1141C199.223 47.5617 199.334 47.9438 199.556 48.2555C199.793 48.5555 200.084 48.7992 200.459 49.0172C200.834 49.2352 201.262 49.4109 201.736 49.575C202.221 49.725 202.706 49.8867 203.194 50.0508C203.693 50.2149 204.178 50.4047 204.652 50.6227C205.137 50.8266 205.554 51.0844 205.929 51.4102C206.304 51.7219 206.609 52.118 206.831 52.5797C207.068 53.0414 207.178 53.6133 207.178 54.2789C207.178 54.9867 207.054 55.6664 206.803 56.2922C206.552 56.918 206.191 57.4477 205.706 57.9094C205.235 58.3711 204.652 58.7391 203.958 58.9969C203.264 59.2547 202.486 59.3906 201.598 59.3906C200.515 59.3906 199.53 59.2008 198.656 58.8188C197.782 58.4391 197.018 57.907 196.395 57.2695L197.046 56.2219C197.102 56.1399 197.184 56.0719 197.269 56.018C197.365 55.9641 197.463 55.9219 197.573 55.9219C197.67 55.9219 197.782 55.9617 197.906 56.0438C198.03 56.1258 198.183 56.2195 198.349 56.3438C198.516 56.4656 198.696 56.6016 198.905 56.7375C199.113 56.8875 199.348 57.0094 199.612 57.1313C199.875 57.2531 200.182 57.3492 200.529 57.443C200.876 57.525 201.251 57.5508 201.68 57.5508C202.207 57.5508 202.692 57.4828 203.109 57.3328C203.527 57.1828 203.873 56.993 204.164 56.7352C204.455 56.4774 204.677 56.1516 204.83 55.7977C204.982 55.4297 205.066 55.0219 205.066 54.5883C205.066 54.0985 204.956 53.6906 204.72 53.3789C204.497 53.0672 204.192 52.7953 203.831 52.5914C203.456 52.3735 203.041 52.1977 202.554 52.0617C202.069 51.9117 201.584 51.7617 201.096 51.6141C200.597 51.45 200.112 51.2742 199.638 51.0703C199.153 50.8664 198.736 50.5945 198.361 50.2828C197.986 49.957 197.695 49.5492 197.459 49.0735C197.236 48.5836 197.126 47.9719 197.126 47.2524C197.126 46.6805 197.236 46.1227 197.459 45.5789C197.695 45.0352 198.028 44.5594 198.457 44.1516C198.9 43.7297 199.427 43.4039 200.067 43.1461C200.705 42.9024 201.441 42.7664 202.273 42.7664C203.203 42.7664 204.049 42.9164 204.799 43.2024C205.563 43.4883 206.243 43.9102 206.81 44.4539L206.269 45.5016L206.259 45.4828Z" fill="#00A39D"/>
<path d="M216.251 52.7297V59.2148H214.003V52.7297L207.912 42.9398H209.883C210.077 42.9398 210.244 42.9937 210.354 43.0898C210.464 43.1859 210.577 43.3078 210.659 43.4578L214.46 49.7812C214.598 50.0531 214.723 50.2969 214.849 50.5289C214.959 50.7609 215.072 50.9906 215.154 51.2226C215.238 50.9906 215.334 50.7609 215.445 50.5289C215.555 50.2969 215.667 50.039 215.805 49.7812L219.593 43.4578C219.663 43.3359 219.759 43.214 219.884 43.1039C220.008 42.9961 220.16 42.9398 220.355 42.9398H222.34L216.251 52.7297Z" fill="#00A39D"/>
<path d="M231.668 53.1633L229.059 46.5422C228.975 46.3523 228.907 46.1203 228.809 45.8625C228.724 45.6047 228.642 45.3187 228.558 45.0187C228.391 45.6305 228.225 46.1484 228.059 46.5562L225.45 53.1633H231.654H231.668ZM236.344 59.2008H234.609C234.401 59.2008 234.248 59.1469 234.124 59.0508C234 58.9547 233.902 58.8328 233.848 58.6711L232.294 54.7406H224.843L223.289 58.6711C223.247 58.807 223.151 58.9289 223.027 59.039C222.902 59.1468 222.736 59.2031 222.541 59.2031H220.807L227.454 42.9281H229.73L236.377 59.2031H236.344V59.2008Z" fill="#00A39D"/>
<path d="M243.143 50.8125C243.795 50.8125 244.364 50.7305 244.863 50.5805C245.363 50.4164 245.78 50.2008 246.112 49.9289C246.459 49.6429 246.71 49.3031 246.877 48.9094C247.043 48.5156 247.127 48.0797 247.127 47.6039C247.127 46.6383 246.809 45.9047 246.157 45.4148C245.505 44.925 244.533 44.6812 243.23 44.6812H240.773V50.8265H243.134L243.143 50.8125ZM250.816 59.2008H248.817C248.4 59.2008 248.109 59.0508 247.915 58.739L243.6 52.9195C243.476 52.7437 243.323 52.6078 243.169 52.5398C243.016 52.4578 242.794 52.4179 242.475 52.4179H240.769V59.2031H238.535V42.9281H243.225C244.28 42.9281 245.182 43.0359 245.944 43.2398C246.705 43.4437 247.345 43.7437 247.83 44.1375C248.33 44.5312 248.705 45.007 248.941 45.5648C249.178 46.1226 249.302 46.7344 249.302 47.4281C249.302 48 249.206 48.5437 249.026 49.0453C248.845 49.5492 248.569 49.9969 248.222 50.3906C247.875 50.7844 247.444 51.1242 246.93 51.3961C246.431 51.682 245.862 51.8859 245.21 52.0359C245.501 52.2 245.737 52.4297 245.946 52.7297L250.788 59.189L250.816 59.2008Z" fill="#00A39D"/>
<path d="M255.328 59.2148H253.064V42.9398H255.328V59.2148Z" fill="#00A39D"/>
<path d="M268.385 53.1633L265.777 46.5422C265.692 46.3523 265.624 46.1203 265.526 45.8625C265.441 45.6047 265.359 45.3187 265.275 45.0187C265.109 45.6305 264.942 46.1484 264.776 46.5562L262.167 53.1633H268.371H268.385ZM273.061 59.2008H271.327C271.132 59.2008 270.966 59.1469 270.841 59.0508C270.717 58.9547 270.619 58.8328 270.565 58.6711L269.011 54.7406H261.56L260.006 58.6711C259.964 58.807 259.868 58.9289 259.744 59.039C259.62 59.1468 259.453 59.2031 259.259 59.2031H257.524L264.171 42.9281H266.447L273.094 59.2031H273.061V59.2008Z" fill="#00A39D"/>
<path d="M288.715 42.9398V59.2148H286.465V51.8039H277.502V59.2148H275.255V42.9398H277.502V50.2008H286.465V42.9398H288.715Z" fill="#00A39D"/>
<path d="M130.533 80.6719H128.33V64.3945H130.533V80.6719Z" fill="#0CA49D"/>
<path d="M148.284 64.3945V80.6695H147.159C146.979 80.6695 146.827 80.6414 146.702 80.5734C146.592 80.5195 146.466 80.4094 146.355 80.2617L136.753 67.9969C136.767 68.1867 136.781 68.3766 136.795 68.5547C136.809 68.7305 136.809 68.9086 136.809 69.0703V80.6695H134.838V64.3945H136.003C136.099 64.3945 136.184 64.4086 136.254 64.4226C136.324 64.4367 136.378 64.4508 136.434 64.4765C136.491 64.5047 136.545 64.5305 136.601 64.5844C136.657 64.6242 136.711 64.6922 136.781 64.7601L146.384 77.0109C146.37 76.8211 146.355 76.6312 146.341 76.4391C146.327 76.2492 146.327 76.0711 146.327 75.9094V64.3781H148.298L148.284 64.3945Z" fill="#00A39D"/>
<path d="M166.934 72.5391C166.934 73.7625 166.739 74.8641 166.336 75.8695C165.947 76.875 165.377 77.7187 164.672 78.4383C163.95 79.1461 163.09 79.7039 162.077 80.0977C161.079 80.4773 159.954 80.6813 158.733 80.6813H152.529V64.4062H158.733C159.954 64.4062 161.065 64.5961 162.077 64.9898C163.09 65.3695 163.95 65.9273 164.672 66.6492C165.394 67.357 165.949 68.2125 166.336 69.218C166.725 70.2234 166.934 71.325 166.934 72.5484V72.5391ZM164.63 72.5391C164.63 71.5336 164.491 70.65 164.213 69.8602C163.936 69.0727 163.547 68.4047 163.034 67.8609C162.52 67.3172 161.909 66.8953 161.175 66.6094C160.453 66.3234 159.635 66.1734 158.747 66.1734H154.793V78.8859H158.747C159.649 78.8859 160.453 78.7359 161.175 78.45C161.897 78.1641 162.52 77.7422 163.034 77.2125C163.547 76.6688 163.936 76.0031 164.213 75.2133C164.491 74.4305 164.63 73.5328 164.63 72.5391Z" fill="#00A39D"/>
<path d="M185.515 72.5391C185.515 73.7625 185.32 74.8781 184.917 75.8977C184.528 76.9172 183.973 77.7867 183.253 78.5226C182.531 79.2562 181.671 79.8281 180.659 80.2359C179.66 80.6437 178.535 80.8336 177.314 80.8336C176.093 80.8336 174.982 80.6297 173.97 80.2359C172.971 79.8281 172.111 79.2562 171.389 78.5226C170.667 77.7891 170.112 76.9172 169.725 75.8977C169.336 74.8781 169.127 73.7484 169.127 72.5391C169.127 71.3156 169.322 70.2 169.725 69.1945C170.114 68.175 170.67 67.2914 171.389 66.5578C172.111 65.8102 172.971 65.2383 173.97 64.8305C174.968 64.4227 176.093 64.2188 177.314 64.2188C178.535 64.2188 179.646 64.4227 180.659 64.8305C181.671 65.2383 182.531 65.8102 183.253 66.5578C183.975 67.2914 184.53 68.175 184.917 69.1945C185.306 70.2141 185.515 71.3297 185.515 72.5391ZM183.211 72.5391C183.211 71.5336 183.073 70.65 182.794 69.8461C182.517 69.0586 182.128 68.3766 181.615 67.8328C181.102 67.275 180.49 66.8531 179.756 66.5555C179.034 66.2555 178.216 66.1078 177.328 66.1078C176.44 66.1078 175.636 66.2578 174.9 66.5555C174.178 66.8555 173.555 67.275 173.041 67.8328C172.528 68.3766 172.139 69.0422 171.862 69.8461C171.586 70.6336 171.445 71.5312 171.445 72.5391C171.445 73.5305 171.584 74.4281 171.862 75.232C172.139 76.0195 172.528 76.6875 173.041 77.2453C173.555 77.7891 174.178 78.2109 174.9 78.5109C175.622 78.7969 176.44 78.9469 177.328 78.9469C178.23 78.9469 179.034 78.7969 179.756 78.5109C180.478 78.2109 181.102 77.7914 181.615 77.2453C182.128 76.6875 182.517 76.0219 182.794 75.232C183.073 74.4445 183.211 73.5469 183.211 72.5391Z" fill="#00A39D"/>
<path d="M202.193 64.3945V80.6695H201.068C200.887 80.6695 200.735 80.6414 200.611 80.5734C200.501 80.5195 200.374 80.4094 200.264 80.2617L190.662 67.9969C190.676 68.1867 190.69 68.3766 190.704 68.5547C190.718 68.7305 190.718 68.9086 190.718 69.0703V80.6695H188.747V64.3945H189.912C190.008 64.3945 190.092 64.4086 190.162 64.4226C190.233 64.4367 190.287 64.4508 190.343 64.4765C190.399 64.5047 190.453 64.5305 190.509 64.5844C190.566 64.6242 190.62 64.6922 190.69 64.7601L200.292 77.0109C200.278 76.8211 200.264 76.6312 200.25 76.4391C200.236 76.2492 200.236 76.0711 200.236 75.9094V64.3781H202.207L202.193 64.3945Z" fill="#00A39D"/>
<path d="M216.682 78.8766L216.668 80.6719H206.44V64.3945H216.668V66.1898H208.687V71.5875H215.154V73.3148H208.687V78.8766H216.682Z" fill="#00A39D"/>
<path d="M228.309 66.9375C228.239 67.0453 228.157 67.1414 228.073 67.1953C227.988 67.2492 227.892 67.2773 227.782 67.2773C227.658 67.2773 227.491 67.2093 227.325 67.0875C227.145 66.9656 226.922 66.8156 226.659 66.6656C226.397 66.5015 226.076 66.3656 225.701 66.2297C225.326 66.1078 224.883 66.0398 224.341 66.0398C223.842 66.0398 223.397 66.1078 223.01 66.2437C222.635 66.3656 222.316 66.5554 222.052 66.7734C221.801 67.0054 221.609 67.2633 221.468 67.575C221.344 67.875 221.273 68.2148 221.273 68.5687C221.273 69.0164 221.384 69.3984 221.606 69.7101C221.843 70.0101 222.134 70.2539 222.509 70.4718C222.884 70.6898 223.312 70.8656 223.786 71.0297C224.271 71.1797 224.756 71.3414 225.244 71.5054C225.743 71.6695 226.228 71.8593 226.702 72.0773C227.187 72.2812 227.604 72.539 227.979 72.8648C228.354 73.1765 228.659 73.5726 228.881 74.0344C229.118 74.4961 229.228 75.0679 229.228 75.7336C229.228 76.4414 229.104 77.1211 228.853 77.7468C228.602 78.3726 228.241 78.9023 227.756 79.364C227.285 79.8258 226.702 80.1937 226.008 80.4515C225.314 80.7094 224.536 80.8453 223.648 80.8453C222.565 80.8453 221.58 80.6554 220.706 80.2734C219.832 79.8937 219.068 79.3617 218.445 78.7242L219.096 77.6765C219.152 77.5945 219.234 77.5265 219.319 77.4726C219.415 77.4187 219.513 77.3765 219.623 77.3765C219.72 77.3765 219.832 77.4164 219.956 77.4984C220.095 77.5804 220.233 77.6742 220.399 77.7984C220.566 77.9203 220.746 78.0562 220.955 78.1922C221.163 78.3422 221.398 78.464 221.662 78.5859C221.925 78.7078 222.232 78.8039 222.579 78.8976C222.926 78.9797 223.301 79.0054 223.73 79.0054C224.257 79.0054 224.742 78.9375 225.159 78.7875C225.577 78.6375 225.923 78.4476 226.214 78.1898C226.505 77.9179 226.727 77.6062 226.88 77.2523C227.032 76.8843 227.116 76.4765 227.116 76.0429C227.116 75.5531 227.006 75.1453 226.77 74.8336C226.547 74.5218 226.242 74.25 225.881 74.0461C225.506 73.8281 225.091 73.6523 224.604 73.5164C224.119 73.3664 223.634 73.2164 223.146 73.0687C222.647 72.9047 222.162 72.7289 221.688 72.525C221.203 72.3211 220.786 72.0492 220.411 71.7375C220.036 71.4117 219.745 71.0039 219.509 70.5281C219.286 70.0383 219.176 69.4265 219.176 68.707C219.176 68.1351 219.286 67.5773 219.509 67.0336C219.745 66.4898 220.078 66.014 220.507 65.6062C220.95 65.1843 221.477 64.8586 222.117 64.6008C222.755 64.357 223.491 64.2211 224.323 64.2211C225.253 64.2211 226.099 64.3711 226.849 64.657C227.613 64.9429 228.293 65.3648 228.86 65.9086L228.319 66.9562L228.309 66.9375Z" fill="#00A39D"/>
<path d="M234.652 80.6719H232.404V64.3945H234.652V80.6719Z" fill="#00A39D"/>
<path d="M247.723 74.6203L245.114 67.9992C245.03 67.7953 244.962 67.5773 244.863 67.3195C244.779 67.0617 244.697 66.7758 244.612 66.4758C244.446 67.0875 244.28 67.6031 244.113 68.0133L241.505 74.6203H247.709H247.723ZM252.398 80.6578H250.664C250.455 80.6578 250.303 80.6039 250.179 80.5078C250.055 80.4117 249.956 80.2898 249.902 80.1281L248.348 76.1976H240.898L239.344 80.1281C239.302 80.264 239.205 80.3859 239.081 80.4961C238.957 80.6039 238.791 80.6601 238.596 80.6601H236.862L243.509 64.3851H245.784L252.431 80.6601H252.398V80.6578Z" fill="#00A39D"/>
</svg>
